<svg width="24" height="24" viewBox="0 0 24 24" fill="none" xmlns="http://www.w3.org/2000/svg">
<path d="M17.5594 14.9118C17.4049 15.6761 16.9912 16.3636 16.3882 16.858C15.7851 17.3524 15.0298 17.6233 14.25 17.6249C12.1622 17.6227 10.1604 16.7923 8.68405 15.3159C7.20768 13.8396 6.37728 11.8378 6.37505 9.74992C6.37666 8.97014 6.64757 8.21485 7.14196 7.61181C7.63634 7.00878 8.32385 6.59503 9.08817 6.44054C9.3298 6.39273 9.58044 6.42553 9.80162 6.53392C10.0228 6.64231 10.2023 6.82029 10.3125 7.04054L11.3888 9.19679C11.4771 9.37393 11.517 9.57121 11.5047 9.76873C11.4924 9.96626 11.4281 10.157 11.3185 10.3218L10.5197 11.5199C10.931 12.3774 11.6225 13.069 12.48 13.4802L13.6782 12.6815C13.8429 12.5718 14.0337 12.5076 14.2312 12.4953C14.4288 12.4829 14.626 12.5229 14.8032 12.6112L16.9594 13.6874C17.1797 13.7977 17.3577 13.9772 17.466 14.1984C17.5744 14.4195 17.6072 14.6702 17.5594 14.9118ZM22.125 11.9999C22.1254 13.7343 21.6803 15.4396 20.8323 16.9525C19.9843 18.4654 18.7619 19.7351 17.2823 20.64C15.8027 21.5448 14.1155 22.0544 12.3824 22.1199C10.6493 22.1853 8.92841 21.8046 7.38474 21.014L4.34442 22.0312C4.01345 22.1427 3.6579 22.1596 3.31784 22.0799C2.97779 22.0002 2.66675 21.8272 2.41978 21.5802C2.17281 21.3332 1.99973 21.0222 1.92005 20.6821C1.84037 20.3421 1.85725 19.9865 1.9688 19.6555L2.98224 16.6152C2.28632 15.2521 1.9085 13.7489 1.87718 12.2187C1.84585 10.6885 2.16185 9.17109 2.8014 7.7806C3.44095 6.39011 4.38741 5.1627 5.56962 4.19066C6.75184 3.21862 8.13904 2.52724 9.62693 2.16851C11.1148 1.80979 12.6647 1.79304 14.16 2.11954C15.6553 2.44603 17.0571 3.10727 18.26 4.05354C19.4629 4.99982 20.4357 6.20649 21.1052 7.58284C21.7746 8.95919 22.1233 10.4694 22.125 11.9999ZM19.875 11.9999C19.8746 10.792 19.5963 9.60036 19.0616 8.5172C18.5269 7.43405 17.7503 6.48841 16.7917 5.75343C15.8331 5.01846 14.7182 4.51386 13.5334 4.27865C12.3486 4.04345 11.1256 4.08396 9.95894 4.39704C8.79229 4.71012 7.7133 5.28739 6.80543 6.08418C5.89757 6.88097 5.18517 7.87593 4.72334 8.99208C4.26152 10.1082 4.06264 11.3157 4.14211 12.521C4.22157 13.7263 4.57725 14.8972 5.18161 15.943C5.26149 16.081 5.31116 16.2343 5.32732 16.3928C5.34348 16.5514 5.32577 16.7115 5.27536 16.8627L4.34442 19.6555L7.13724 18.7246C7.25212 18.6863 7.3724 18.6667 7.49349 18.6665C7.69107 18.6668 7.88508 18.7192 8.05599 18.8184C9.2532 19.5111 10.6117 19.8763 11.9949 19.8772C13.3781 19.8781 14.7371 19.5147 15.9353 18.8235C17.1334 18.1323 18.1283 17.1377 18.8199 15.9399C19.5115 14.742 19.8755 13.3831 19.875 11.9999Z" fill="white"/>
</svg>
